<mxfile host="65bd71144e">
    <diagram id="3jqajmg7M_PDbqFlmPRO" name="Страница — 1">
        <mxGraphModel dx="635" dy="465" grid="1" gridSize="10" guides="1" tooltips="1" connect="1" arrows="1" fold="1" page="1" pageScale="1" pageWidth="850" pageHeight="1100" background="none" math="0" shadow="0">
            <root>
                <mxCell id="0"/>
                <mxCell id="1" parent="0"/>
                <mxCell id="2" style="edgeStyle=orthogonalEdgeStyle;rounded=0;orthogonalLoop=1;jettySize=auto;html=1;exitX=1;exitY=0.5;exitDx=0;exitDy=0;entryX=0;entryY=0.5;entryDx=0;entryDy=0;endArrow=diamondThin;endFill=1;endSize=12;" parent="1" source="3" target="8" edge="1">
                    <mxGeometry relative="1" as="geometry"/>
                </mxCell>
                <mxCell id="3" value="Point&lt;br&gt;" style="rounded=0;whiteSpace=wrap;html=1;" parent="1" vertex="1">
                    <mxGeometry x="250" y="130" width="160" height="30" as="geometry"/>
                </mxCell>
                <mxCell id="4" value="- x:&lt;span style=&quot;white-space: pre;&quot;&gt;&#9;&lt;/span&gt;double&lt;br&gt;- y:&lt;span style=&quot;white-space: pre;&quot;&gt;&#9;&lt;/span&gt;double" style="rounded=0;whiteSpace=wrap;html=1;align=left;" parent="1" vertex="1">
                    <mxGeometry x="250" y="160" width="160" height="40" as="geometry"/>
                </mxCell>
                <mxCell id="5" value="+ getX(): double&lt;br&gt;+ getY(): double&lt;br&gt;+ setX(v: double): void&lt;br&gt;+ setY(v: double): void&lt;br&gt;+ move(x: double, y: double)" style="rounded=0;whiteSpace=wrap;html=1;align=left;" parent="1" vertex="1">
                    <mxGeometry x="250" y="200" width="160" height="90" as="geometry"/>
                </mxCell>
                <mxCell id="6" style="edgeStyle=orthogonalEdgeStyle;rounded=0;orthogonalLoop=1;jettySize=auto;html=1;exitX=0.5;exitY=0;exitDx=0;exitDy=0;dashed=1;endArrow=block;endFill=0;endSize=11;entryX=0.5;entryY=1;entryDx=0;entryDy=0;" parent="1" source="8" target="13" edge="1">
                    <mxGeometry relative="1" as="geometry">
                        <mxPoint x="620" y="90" as="targetPoint"/>
                    </mxGeometry>
                </mxCell>
                <mxCell id="7" value="implements" style="edgeLabel;html=1;align=center;verticalAlign=middle;resizable=0;points=[];rounded=0;" parent="6" vertex="1" connectable="0">
                    <mxGeometry x="-0.3333" y="-2" relative="1" as="geometry">
                        <mxPoint as="offset"/>
                    </mxGeometry>
                </mxCell>
                <mxCell id="8" value="Triangle" style="rounded=0;whiteSpace=wrap;html=1;" parent="1" vertex="1">
                    <mxGeometry x="480" y="130" width="160" height="30" as="geometry"/>
                </mxCell>
                <mxCell id="12" value="" style="edgeStyle=none;html=1;" parent="1" source="9" target="10" edge="1">
                    <mxGeometry relative="1" as="geometry"/>
                </mxCell>
                <mxCell id="9" value="- points: Point[3]" style="rounded=0;whiteSpace=wrap;html=1;align=left;" parent="1" vertex="1">
                    <mxGeometry x="480" y="160" width="160" height="30" as="geometry"/>
                </mxCell>
                <mxCell id="10" value="+ findPerimeter(): double&lt;br&gt;+ findArea(): double&lt;br&gt;+ findCenter(): Point&lt;br&gt;+ move(offset: Point): void&lt;br&gt;+ scale(factor: double): void&lt;br&gt;+ compareTo(o: Triangle): int" style="rounded=0;whiteSpace=wrap;html=1;align=left;" parent="1" vertex="1">
                    <mxGeometry x="480" y="190" width="160" height="100" as="geometry"/>
                </mxCell>
                <mxCell id="11" value="Comparable&amp;lt;T&amp;gt;" style="rounded=0;whiteSpace=wrap;html=1;" parent="1" vertex="1">
                    <mxGeometry x="495" y="20" width="130" height="30" as="geometry"/>
                </mxCell>
                <mxCell id="13" value="+ compareTo(o: T): int" style="rounded=0;whiteSpace=wrap;html=1;align=left;" parent="1" vertex="1">
                    <mxGeometry x="495" y="50" width="130" height="20" as="geometry"/>
                </mxCell>
                <mxCell id="18" style="edgeStyle=none;html=1;exitX=0;exitY=0.5;exitDx=0;exitDy=0;entryX=1;entryY=0.5;entryDx=0;entryDy=0;dashed=1;endArrow=open;endFill=0;endSize=12;" edge="1" parent="1" source="14" target="8">
                    <mxGeometry relative="1" as="geometry"/>
                </mxCell>
                <mxCell id="19" value="uses" style="edgeLabel;html=1;align=center;verticalAlign=middle;resizable=0;points=[];" vertex="1" connectable="0" parent="18">
                    <mxGeometry x="-0.1863" y="-2" relative="1" as="geometry">
                        <mxPoint as="offset"/>
                    </mxGeometry>
                </mxCell>
                <mxCell id="14" value="ConsoleRunner" style="rounded=0;whiteSpace=wrap;html=1;" vertex="1" parent="1">
                    <mxGeometry x="710" y="130" width="160" height="30" as="geometry"/>
                </mxCell>
                <mxCell id="15" value="" style="rounded=0;whiteSpace=wrap;html=1;" vertex="1" parent="1">
                    <mxGeometry x="710" y="160" width="160" height="10" as="geometry"/>
                </mxCell>
                <mxCell id="16" value="+ run(): void&lt;br&gt;- handlePrintArea(): void&lt;br&gt;- handlePrintPerimeter(): void&lt;br&gt;- handlePrintCenter(): void&lt;br&gt;- handleMove(): void&lt;br&gt;- handleScale(): void&lt;br&gt;- handleCompare(): void" style="rounded=0;whiteSpace=wrap;html=1;align=left;" vertex="1" parent="1">
                    <mxGeometry x="710" y="170" width="160" height="110" as="geometry"/>
                </mxCell>
            </root>
        </mxGraphModel>
    </diagram>
</mxfile>